<svg width="48" height="50" viewBox="0 0 48 50" fill="none" xmlns="http://www.w3.org/2000/svg">
<path d="M22.8214 0.859771C23.5236 0.347495 24.4764 0.347495 25.1786 0.859771L30.0382 4.4046C30.3815 4.65504 30.7957 4.78961 31.2207 4.7888L37.2357 4.77735C38.105 4.7757 38.8758 5.33571 39.1428 6.16294L40.9907 11.8871C41.1212 12.2916 41.3772 12.6439 41.7215 12.893L46.5945 16.4193C47.2987 16.9289 47.5931 17.835 47.3229 18.6612L45.4533 24.3783C45.3212 24.7823 45.3212 25.2177 45.4533 25.6217L47.3229 31.3388C47.5931 32.165 47.2987 33.0711 46.5945 33.5807L41.7215 37.107C41.3772 37.3561 41.1212 37.7085 40.9907 38.1129L39.1428 43.8371C38.8758 44.6643 38.105 45.2243 37.2357 45.2226L31.2207 45.2112C30.7957 45.2104 30.3815 45.345 30.0382 45.5954L25.1786 49.1402C24.4764 49.6525 23.5236 49.6525 22.8214 49.1402L17.9618 45.5954C17.6185 45.345 17.2043 45.2104 16.7793 45.2112L10.7643 45.2226C9.89502 45.2243 9.12422 44.6643 8.85718 43.8371L7.00932 38.1129C6.87877 37.7085 6.62279 37.3561 6.27852 37.107L1.4055 33.5807C0.701283 33.0711 0.406866 32.165 0.677056 31.3388L2.5467 25.6217C2.67879 25.2177 2.67879 24.7823 2.5467 24.3783L0.677056 18.6612C0.406866 17.835 0.701284 16.9289 1.4055 16.4193L6.27852 12.893C6.62279 12.6439 6.87877 12.2916 7.00932 11.8871L8.85718 6.16294C9.12422 5.33571 9.89502 4.7757 10.7643 4.77735L16.7793 4.7888C17.2043 4.78961 17.6185 4.65504 17.9618 4.4046L22.8214 0.859771Z" fill="#5697D3"/>
</svg>
